<?xml version="1.0" encoding="UTF-8" standalone="no"?>
<svg
   xmlns:dc="http://purl.org/dc/elements/1.1/"
   xmlns:cc="http://creativecommons.org/ns#"
   xmlns:rdf="http://www.w3.org/1999/02/22-rdf-syntax-ns#"
   xmlns:svg="http://www.w3.org/2000/svg"
   xmlns="http://www.w3.org/2000/svg"
   xmlns:xlink="http://www.w3.org/1999/xlink"
   xmlns:sodipodi="http://sodipodi.sourceforge.net/DTD/sodipodi-0.dtd"
   xmlns:inkscape="http://www.inkscape.org/namespaces/inkscape"
   width="48"
   height="48"
   id="svg2"
   version="1.1"
   inkscape:version="1.0.1 (3bc2e813f5, 2020-09-07)"
   sodipodi:docname="audio_stream_toggle.svg">
  <defs
     id="defs4">
    <linearGradient
       inkscape:collect="always"
       id="linearGradient6408">
      <stop
         style="stop-color:#ffffff;stop-opacity:1;"
         offset="0"
         id="stop6410" />
      <stop
         style="stop-color:#ffffff;stop-opacity:0;"
         offset="1"
         id="stop6412" />
    </linearGradient>
    <linearGradient
       inkscape:collect="always"
       xlink:href="#linearGradient6408"
       id="linearGradient6414"
       x1="-0.19140124"
       y1="1028.3622"
       x2="48.191406"
       y2="1028.3622"
       gradientUnits="userSpaceOnUse"
       gradientTransform="matrix(0.99102192,0,0,1.0968592,0.21547124,-99.606144)" />
    <linearGradient
       inkscape:collect="always"
       xlink:href="#linearGradient6408"
       id="linearGradient3172"
       gradientUnits="userSpaceOnUse"
       gradientTransform="matrix(0.99102192,0,0,1.0968592,0.21547124,-99.606144)"
       x1="-0.19140124"
       y1="1028.3622"
       x2="48.191406"
       y2="1028.3622" />
  </defs>
  <sodipodi:namedview
     id="base"
     pagecolor="#ffffff"
     bordercolor="#666666"
     borderopacity="1.0"
     inkscape:pageopacity="0.0"
     inkscape:pageshadow="2"
     inkscape:zoom="7.9195959"
     inkscape:cx="23.973411"
     inkscape:cy="43.416899"
     inkscape:document-units="px"
     inkscape:current-layer="layer1"
     showgrid="false"
     inkscape:window-width="1920"
     inkscape:window-height="1016"
     inkscape:window-x="0"
     inkscape:window-y="27"
     inkscape:window-maximized="1"
     inkscape:showpageshadow="true"
     showborder="true"
     borderlayer="false"
     inkscape:document-rotation="0" />
  <metadata
     id="metadata7">
    <rdf:RDF>
      <cc:Work
         rdf:about="">
        <dc:format>image/svg+xml</dc:format>
        <dc:type
           rdf:resource="http://purl.org/dc/dcmitype/StillImage" />
        <dc:title></dc:title>
      </cc:Work>
    </rdf:RDF>
  </metadata>
  <g
     inkscape:label="Layer 1"
     inkscape:groupmode="layer"
     id="layer1"
     transform="translate(0,-1004.3622)">
    <rect
       style="fill:#f2f2f2;fill-opacity:1;fill-rule:evenodd;stroke:#000000;stroke-width:1.04259837;stroke-linecap:butt;stroke-linejoin:miter;stroke-miterlimit:4;stroke-opacity:1;stroke-dasharray:none"
       id="rect2989"
       width="46.957401"
       height="46.957401"
       x="0.52129936"
       y="1004.8835"
       ry="5.2629762" />
    <text
       xml:space="preserve"
       style="font-style:normal;font-weight:normal;font-size:40px;line-height:125%;font-family:sans-serif;text-align:center;letter-spacing:0px;word-spacing:0px;text-anchor:middle;fill:#000000;fill-opacity:1;stroke:none;stroke-width:1px;stroke-linecap:butt;stroke-linejoin:miter;stroke-opacity:1"
       x="24.047989"
       y="1018.3161"
       id="text825"><tspan
         sodipodi:role="line"
         id="tspan823"
         x="24.047989"
         y="1018.3161"
         style="font-style:normal;font-variant:normal;font-weight:normal;font-stretch:normal;font-size:12px;font-family:Ubuntu;-inkscape-font-specification:Ubuntu;text-align:center;text-anchor:middle">stream</tspan></text>
    <g
       id="g878"
       transform="matrix(0.05215958,0,0,0.05215958,10.647148,1022.1522)">
      <path
         d="m 346.96094,0 c -8.29297,0 -15.00391,6.710938 -15.00391,15.003906 0,8.292969 6.71094,15.003906 15.00391,15.003906 74.46093,0 135.03125,60.570313 135.03125,135.031248 0,8.29297 6.71093,14.80469 15.0039,14.80469 8.29297,0 15.00391,-6.51172 15.00391,-14.80469 C 512,74.035156 437.96484,0 346.96094,0 Z m 0,0"
         id="path858" />
      <path
         d="m 346.96094,60.015625 c -8.29297,0 -15.00391,6.710937 -15.00391,15.003906 0,8.292969 6.71094,15 15.00391,15 41.36328,0 75.01953,33.656249 75.01953,75.019529 0,8.29297 6.70703,14.80469 15,14.80469 8.29297,0 15.0039,-6.51172 15.0039,-14.80469 0,-57.90625 -47.11718,-105.023435 -105.02343,-105.023435 z m 0,0"
         id="path860" />
      <path
         d="m 346.96094,120.02734 c -8.29297,0 -15.00391,6.71094 -15.00391,15.00391 0,8.29297 6.71094,15.00391 15.00391,15.00391 8.27734,0 15.0039,6.72656 15.0039,15.0039 0,8.29297 6.71094,14.80469 15.00391,14.80469 8.29297,0 15.00391,-6.51172 15.00391,-14.80469 0,-24.82031 -20.19141,-45.01172 -45.01172,-45.01172 z m 0,0"
         id="path862" />
      <path
         d="m 312.94922,182.02344 -210.05078,30.00781 c -7.382815,1.05469 -12.878909,7.38281 -12.878909,14.85547 V 428.00391 C 81.210938,424.23828 71.078125,421.93359 60.015625,421.93359 26.359375,421.93359 0,441.69922 0,466.94531 c 0,25.2461 26.359375,45.01172 60.015625,45.01172 33.652344,0 60.011715,-19.76562 60.011715,-45.01172 V 320.54688 l 180.04297,-27.70313 v 105.15234 c -8.80859,-3.76562 -18.9414,-6.07031 -30.00781,-6.07031 -33.65234,0 -60.01172,19.76563 -60.01172,45.01172 0,25.24609 26.35938,45.01172 60.01172,45.01172 33.65625,0 60.01563,-19.76563 60.01563,-45.01172 V 196.87891 c 0,-9.1875 -8.19532,-16.1836 -17.12891,-14.85547 z m 0,0"
         id="path864" />
    </g>
  </g>
</svg>
